<svg xmlns="http://www.w3.org/2000/svg" xmlns:xlink="http://www.w3.org/1999/xlink" width="70" height="70" viewBox="0 0 70 70">
  <defs>
    <clipPath id="clip-path">
      <circle id="楕円形_1" data-name="楕円形 1" cx="35" cy="35" r="35" transform="translate(79 693)" fill="#fff" stroke="#707070" stroke-width="1"/>
    </clipPath>
  </defs>
  <g id="グループ_6" data-name="グループ 6" transform="translate(-79 -693)">
    <g id="マスクグループ_1" data-name="マスクグループ 1" clip-path="url(#clip-path)">
      <rect id="長方形_100" data-name="長方形 100" width="44" height="96" transform="translate(70 680)" fill="#052883"/>
      <rect id="長方形_101" data-name="長方形 101" width="44" height="96" transform="translate(114 680)" fill="#db1818"/>
    </g>
    <path id="パス_59" data-name="パス 59" d="M6.785-38l.708-3.3H14.1q2.655,0,5.635-.236t5.87-.236a27.66,27.66,0,0,1,5.93.59,13.576,13.576,0,0,1,4.572,1.829,8.882,8.882,0,0,1,2.95,3.157,9.3,9.3,0,0,1,1.062,4.572,14.629,14.629,0,0,1-1.534,6.844,14.175,14.175,0,0,1-4.278,4.956,19.333,19.333,0,0,1-6.519,3.009,31.871,31.871,0,0,1-8.2,1H18.5q-.738,0-1.563-.03t-1.623-.089q-.8-.059-1.21-.118L11.387-3.3h5.9L16.579,0H-1.239L-.59-3.3H4.779L12.154-38Zm8.024,18.585a2.807,2.807,0,0,0,.856.147q.56.03,1.21.089t1.268.059h.973a18.808,18.808,0,0,0,5.192-.708,12.657,12.657,0,0,0,4.366-2.183,10.375,10.375,0,0,0,2.979-3.747,12.5,12.5,0,0,0,1.091-5.457A6.689,6.689,0,0,0,30.5-36.492q-2.242-1.977-7.434-1.977a21.457,21.457,0,0,0-2.537.118q-.944.118-1.77.236Z" transform="translate(95 750)" fill="#fff"/>
  </g>
</svg>
